<?xml version="1.0" encoding="iso-8859-1"?>
<!-- Generator: Adobe Illustrator 19.0.0, SVG Export Plug-In . SVG Version: 6.00 Build 0)  -->
<svg version="1.1" id="Layer_1" xmlns="http://www.w3.org/2000/svg" xmlns:xlink="http://www.w3.org/1999/xlink" x="0px" y="0px"
	 viewBox="0 0 508 508" style="enable-background:new 0 0 508 508;" xml:space="preserve">
<circle style="fill:#324A5E;" cx="254" cy="254" r="254"/>
<path style="fill:#E6E9EE;" d="M407.6,255.6h-31.2c-2.4,0-4.4,2-4.4,4.4v63.2H136V260c0-2.4-2-4.4-4.4-4.4h-31.2
	c-2.4,0-4.4,2-4.4,4.4v83.2c0,11.2,8.8,20,20,20h276.4c11.2,0,20-8.8,20-20V260C412.4,257.6,410.4,255.6,407.6,255.6z"/>
<g>
	<rect x="204" y="274.4" style="fill:#4CDBC4;" width="100.8" height="18.4"/>
	<rect x="204" y="225.6" style="fill:#4CDBC4;" width="100.8" height="32.8"/>
	<path style="fill:#4CDBC4;" d="M334.4,142l-74.8-74.8c-3.2-3.2-8-3.2-10.8,0L173.6,142c-4.8,4.8-1.6,13.2,5.6,13.2H204v54h100.8
		v-54h24C335.6,155.2,339.2,147.2,334.4,142z"/>
</g>
<g>
</g>
<g>
</g>
<g>
</g>
<g>
</g>
<g>
</g>
<g>
</g>
<g>
</g>
<g>
</g>
<g>
</g>
<g>
</g>
<g>
</g>
<g>
</g>
<g>
</g>
<g>
</g>
<g>
</g>
</svg>
